<svg viewBox="0 0 150 60" xmlns="http://www.w3.org/2000/svg" fill-rule="evenodd" clip-rule="evenodd" stroke-linejoin="round" stroke-miterlimit="2">
  <path d="M6.62 24.44c0-3.85-.47-4.63-.47-5.4 0-.92 3.34-1.23 4.28-1.23 1.22 0 1.3 1.53 1.53 2.49.82-1.45 1.94-2.92 4.16-2.92 1.9 0 2.18 1.3 2.18 2.07 0 .74-.4 3.2-1.2 3.2-.53 0-1.02-.28-1.78-.28-1.6 0-2.62 1.13-3.07 1.89v12.3c0 .8-.67 1.23-2.3 1.23H8.92c-1.62 0-2.29-.42-2.29-1.22V24.44Zm23.14 13.35h-1.89c-1.24 0-1.96-.27-2.09-.82l-4.85-17.8c-.09-.23-.09-.45-.09-.58 0-.6 1.56-.94 3.18-.94 1.03-.07 2.07.18 2.23.74l3.05 11.79 2.89-11.8c.13-.55.89-.82 2.11-.82h.94c1.04 0 2 .27 2.09.83l2.83 11.79 3.11-11.8c.16-.55.9-.82 2.1-.82h.17c1.63 0 2.36.38 2.36 1.03 0 .15-.02.33-.09.55L43.3 36.97c-.15.55-1.02.82-2.09.82h-1.89c-1.22 0-1.96-.27-2.1-.82L34.47 26.2l-2.6 10.77c-.12.55-1.05.82-2.1.82Z" fill="#404040"/>
  <path d="M239.8 117.4c-1.4-11-15-19.5-23.5-20.7 3 2.3 6.5 4.3 9.2 7 4.7 4.5 6.8 10 5.2 16.5a32.5 32.5 0 0 1-10.1 15.5 115.6 115.6 0 0 1-37 22.3 259.88 259.88 0 0 1-75.8 17.8 187.11 187.11 0 0 1-51.2-1.8c-9.6-1.8-19-4.4-27-10.1-8.3-5.8-11-13-8.2-21.3l-3.5-12.9a54.1 54.1 0 0 0-15 16.7c-5.3 10-3.3 19.5 5.5 26.8 8 6.6 17.6 9.7 27.5 11.9a207 207 0 0 0 63.8 2.7 305.99 305.99 0 0 0 67.7-13.6 184.1 184.1 0 0 0 51.5-24.4c6.7-4.7 12.7-10 17-17 3-4.6 4.6-9.7 4-15.4h-.1Z" transform="translate(.32 6.04) scale(.22253)" fill="url(#a)" fill-rule="nonzero"/>
  <path d="M71.78 17.55h-1.5c-.83 0-1.46.14-1.63.6l-6.33 18.5c-.06.2-.12.38-.12.52 0 .4.55.64 1.76.64h1.15c.69 0 1.18-.18 1.32-.6l1.15-3.52h6.8l1.15 3.51c.14.46.77.6 1.6.6h1.27c1.01 0 1.44-.22 1.44-.63a1.93 1.93 0 0 0-.08-.51l-6.34-18.5c-.17-.47-.8-.61-1.64-.61Zm-.72 5.38c.12.6.23 1.24.44 1.84l1.64 5.12h-4.32l1.7-5.12c.23-.6.31-1.24.43-1.84h.11Zm13.33-5.41h-1c-1.22 0-1.73.34-1.73.95v18.42c0 .6.51.95 1.72.95h1c1.22 0 1.74-.35 1.74-.95V18.47c0-.6-.52-.95-1.73-.95Zm19.08 4.95c-5.15 0-7.4 2.73-7.4 7.85 0 5.16 2.33 7.66 7.26 7.66.95 0 5.03-.4 5.03-2.01 0-.58-.86-2.2-1.5-2.2-.1 0-.28.1-.51.18a6.27 6.27 0 0 1-2.82.66c-2.19 0-3.08-1.44-3.08-4.4 0-2.94.95-4.37 3.25-4.37 1.2 0 1.99.37 2.5.63.23.11.4.2.52.2.5 0 1.53-1.67 1.53-2.22 0-1.32-2.74-1.98-4.78-1.98Zm9.79-6.42h-.81c-1.2 0-1.73.32-1.73.92V36.9c0 .6.52.92 1.73.92h.8c1.21 0 1.73-.32 1.73-.92v-9.24c.35-.66 1.13-1.67 2.3-1.67 1.27 0 1.85.66 1.85 1.78v9.13c0 .6.52.92 1.72.92h.81c1.2 0 1.73-.32 1.73-.92v-9.76c0-3.2-1.47-4.66-4.35-4.66-1.73 0-3.16.89-4.06 1.95v-7.45c0-.6-.52-.92-1.72-.92Zm19.36 6.42c-3.19 0-5.5 1-5.5 1.98 0 .6.9 2.3 1.5 2.3.35 0 1.59-.91 3.69-.91 1.58 0 2.24.54 2.24 1.64v.95c-7.3 0-8.26 2.99-8.26 5.35s1.15 4.2 4.26 4.2a5 5 0 0 0 4.23-2.19c.18.78.23 1.99 1.15 1.99.72 0 3.23-.23 3.23-.92 0-.6-.35-1.21-.35-4.18v-5.4c0-2.8-1.64-4.81-6.19-4.81Zm1.93 8.75v1.58a2.96 2.96 0 0 1-2.59 1.81c-.95 0-1.44-.54-1.44-1.26 0-1.38 1.3-2.13 4.03-2.13Zm11.25-12.18h-.89c-.95 0-1.46.32-1.55.92l-.37 2.74h-.47c-.6 0-.86.43-.86 1.44v.49c0 1 .26 1.44.86 1.44h.47v7.25c0 3.2 1.5 4.66 4.2 4.66.89 0 2.76-.09 2.76-1.41 0-.23-.32-2.07-.9-2.07-.17 0-.51.11-.77.11-.75 0-1.04-.37-1.04-1.23v-7.31h1.41c.6 0 .87-.44.87-1.44v-.5c0-1-.26-1.43-.87-1.43h-1.4v-2.74c0-.6-.44-.92-1.44-.92Z" fill="#404040" fill-rule="nonzero"/>
  <defs>
    <linearGradient id="a" x1="0" y1="0" x2="1" y2="0" gradientUnits="userSpaceOnUse" gradientTransform="translate(0 23358.5) scale(240.079)">
      <stop offset="0" stop-color="#f65c51"/>
      <stop offset=".1" stop-color="#d9615e"/>
      <stop offset=".5" stop-color="#906f7f"/>
      <stop offset=".9" stop-color="#1c84b2"/>
      <stop offset="1" stop-color="#0988bb"/>
    </linearGradient>
  </defs>
</svg>
