<svg viewBox="0 0 150 60" xmlns="http://www.w3.org/2000/svg" xml:space="preserve" fill-rule="evenodd" clip-rule="evenodd" stroke-linejoin="round" stroke-miterlimit="2">
  <path d="M6.62 24.44c0-3.85-.47-4.63-.47-5.4 0-.92 3.34-1.23 4.28-1.23 1.22 0 1.3 1.53 1.53 2.49.82-1.45 1.94-2.92 4.16-2.92 1.9 0 2.18 1.3 2.18 2.07 0 .74-.4 3.2-1.2 3.2-.53 0-1.02-.28-1.78-.28-1.6 0-2.62 1.13-3.07 1.9v12.3c0 .8-.67 1.22-2.3 1.22H8.92c-1.62 0-2.29-.42-2.29-1.22V24.44Zm23.14 13.35h-1.89c-1.24 0-1.96-.27-2.09-.82l-4.85-17.8c-.09-.23-.09-.45-.09-.58 0-.6 1.56-.94 3.18-.94 1.03-.07 2.07.18 2.23.74l3.05 11.79 2.89-11.8c.13-.55.89-.82 2.11-.82h.94c1.04 0 2 .27 2.09.83l2.83 11.79 3.11-11.8c.16-.55.9-.82 2.1-.82h.17c1.63 0 2.36.38 2.36 1.03 0 .15-.02.33-.09.55L43.3 36.97c-.15.55-1.02.82-2.09.82h-1.89c-1.22 0-1.96-.27-2.1-.82L34.47 26.2l-2.6 10.77c-.12.55-1.05.82-2.1.82Z" fill="#404040"/>
  <path d="M239.8 117.4c-1.4-11-15-19.5-23.5-20.7 3 2.3 6.5 4.3 9.2 7 4.7 4.5 6.8 10 5.2 16.5a32.5 32.5 0 0 1-10.1 15.5 115.6 115.6 0 0 1-37 22.3 259.88 259.88 0 0 1-75.8 17.8 187.11 187.11 0 0 1-51.2-1.8c-9.6-1.8-19-4.4-27-10.1-8.3-5.8-11-13-8.2-21.3l-3.5-12.9a54.1 54.1 0 0 0-15 16.7c-5.3 10-3.3 19.5 5.5 26.8 8 6.6 17.6 9.7 27.5 11.9a207 207 0 0 0 63.8 2.7 306 306 0 0 0 67.7-13.6 184.1 184.1 0 0 0 51.5-24.4c6.7-4.7 12.7-10 17-17 3-4.6 4.6-9.7 4-15.4h-.1Z" fill="url(#a)" fill-rule="nonzero" transform="translate(.32 6.04) scale(.22253)"/>
  <path d="M70.74 17.5c-3.4 0-4.88 1.81-4.88 5.19 0 3.4 1.54 5.05 4.78 5.05.63 0 3.33-.27 3.33-1.33 0-.38-.57-1.44-1-1.44-.07 0-.18.06-.33.11-.36.17-.97.44-1.86.44-1.45 0-2.04-.95-2.04-2.9 0-1.94.63-2.9 2.15-2.9.8 0 1.3.25 1.65.43a1 1 0 0 0 .34.13c.33 0 1-1.1 1-1.46 0-.88-1.8-1.31-3.14-1.31Zm6.46-4.23h-.54c-.8 0-1.14.21-1.14.6v13.15c0 .4.34.6 1.14.6h.53c.8 0 1.14-.2 1.14-.6v-6.1c.23-.43.74-1.1 1.52-1.1.84 0 1.22.44 1.22 1.18v6.02c0 .4.34.6 1.14.6h.53c.8 0 1.14-.2 1.14-.6v-6.44c0-2.1-.97-3.07-2.87-3.07-1.14 0-2.09.58-2.68 1.29v-4.92c0-.4-.34-.6-1.14-.6Zm12.77 4.23c-2.1 0-3.62.67-3.62 1.32 0 .4.58 1.51.98 1.51.23 0 1.05-.6 2.43-.6 1.05 0 1.48.36 1.48 1.08v.63c-4.82 0-5.44 1.97-5.44 3.53 0 1.56.75 2.77 2.8 2.77a3.3 3.3 0 0 0 2.8-1.44c.11.51.15 1.3.76 1.3.47 0 2.12-.14 2.12-.6 0-.4-.22-.8-.22-2.75v-3.57c0-1.85-1.09-3.17-4.09-3.17Zm1.27 5.78v1.04c-.3.69-.98 1.2-1.7 1.2-.63 0-.95-.36-.95-.84 0-.9.85-1.4 2.65-1.4Zm7.43-8.03h-.59c-.63 0-.97.2-1.02.6l-.25 1.8h-.3c-.4 0-.58.3-.58.96v.32c0 .66.18.95.57.95h.3v4.78c0 2.11 1 3.08 2.78 3.08.59 0 1.82-.06 1.82-.93 0-.15-.2-1.37-.59-1.37-.1 0-.34.08-.5.08-.5 0-.7-.25-.7-.82v-4.82h.94c.4 0 .57-.29.57-.95v-.32c0-.67-.17-.95-.57-.95h-.93v-1.8c0-.4-.29-.61-.95-.61Zm20.3 2.37c-.69 0-1.05.13-1.12.4l-1.31 5.01-.23.84-.19-.78-1.22-5.07c-.05-.27-.5-.4-1.04-.4h-.46c-.6 0-.98.13-1.04.4l-1.22 4.95-.22.9-.21-.84-1.3-5.01c-.07-.29-.47-.4-1.5-.4-.81 0-1.17.19-1.17.5 0 .07 0 .16.04.28l2.39 8.83c.08.26.42.4 1.04.4h.93c.54 0 1-.14 1.05-.4l1.08-4.5.21-.84c.08.27.13.55.2.82l1.17 4.52c.07.26.43.4 1.04.4h.93c.53 0 .97-.14 1.05-.4l2.24-8.83c.02-.12.04-.21.04-.29 0-.3-.37-.49-1.18-.49Zm4.4-4.35h-.53c-.8 0-1.14.21-1.14.6v1.55c0 .4.34.6 1.14.6h.53c.8 0 1.14-.2 1.14-.6v-1.54c0-.4-.34-.6-1.14-.6Zm0 4.35h-.53c-.8 0-1.14.2-1.14.6v8.8c0 .4.34.6 1.14.6h.53c.8 0 1.14-.2 1.14-.6v-8.8c0-.4-.34-.6-1.14-.6Zm5.57-2.37h-.6c-.62 0-.96.2-1.02.6l-.24 1.8h-.3c-.4 0-.58.3-.58.96v.32c0 .66.17.95.57.95h.3v4.78c0 2.11 1 3.08 2.78 3.08.59 0 1.82-.06 1.82-.93 0-.15-.2-1.37-.59-1.37-.11 0-.34.08-.51.08-.5 0-.68-.25-.68-.82v-4.82h.93c.4 0 .57-.29.57-.95v-.32c0-.67-.17-.95-.57-.95h-.93v-1.8c0-.4-.29-.61-.95-.61Zm6.09-1.98h-.53c-.8 0-1.14.21-1.14.6v13.15c0 .4.34.6 1.14.6h.53c.8 0 1.14-.2 1.14-.6v-6.1c.23-.43.74-1.1 1.52-1.1.84 0 1.22.44 1.22 1.18v6.02c0 .4.34.6 1.14.6h.53c.8 0 1.14-.2 1.14-.6v-6.44c0-2.1-.97-3.07-2.87-3.07-1.14 0-2.09.58-2.68 1.29v-4.92c0-.4-.34-.6-1.14-.6ZM66.08 32.26h-.54c-.8 0-1.14.2-1.14.6v4.22a3.3 3.3 0 0 0-1.93-.59c-2.57 0-4 2.02-4 5.11 0 3.3 1.5 5.13 3.54 5.13 1.18 0 2.11-.6 2.55-1.43.11.5.15 1.3.76 1.3.47 0 2.12-.16 2.12-.61 0-.4-.22-.8-.22-2.76V32.87c0-.4-.35-.61-1.14-.61Zm-3 6.46c.58 0 1.02.19 1.32.36v4.23c-.34.59-.83 1.12-1.55 1.12-1.05 0-1.54-.99-1.54-2.83 0-1.9.57-2.88 1.77-2.88ZM73.8 36.5c-3.02 0-4.61 1.8-4.61 5.1s1.6 5.13 4.61 5.13c3.02 0 4.6-1.82 4.6-5.13 0-3.3-1.58-5.1-4.6-5.1Zm0 2.22c1.22 0 1.75.98 1.75 2.88s-.53 2.9-1.75 2.9c-1.21 0-1.76-1-1.76-2.9s.55-2.88 1.76-2.88Zm11.07-2.22c-3.4 0-4.88 1.8-4.88 5.18 0 3.4 1.54 5.05 4.79 5.05.63 0 3.32-.27 3.32-1.33 0-.38-.57-1.44-.99-1.44-.07 0-.19.05-.34.11-.36.17-.97.44-1.86.44-1.44 0-2.03-.95-2.03-2.9 0-1.94.63-2.9 2.15-2.9.8 0 1.3.25 1.65.42.15.08.26.14.34.14.32 0 1-1.1 1-1.47 0-.87-1.8-1.3-3.15-1.3Zm11.8.1h-.54c-.8 0-1.13.22-1.13.62v6.1c-.23.43-.75 1.1-1.52 1.1-.84 0-1.14-.44-1.14-1.19v-6.01c0-.4-.35-.61-1.14-.61h-.53c-.8 0-1.14.2-1.14.6v6.44c0 2.11.89 3.08 2.79 3.08a3.7 3.7 0 0 0 2.83-1.44c.11.5.15 1.3.76 1.3.47 0 2.12-.15 2.12-.6 0-.4-.22-.8-.22-2.76v-6.01c0-.4-.35-.61-1.14-.61Zm14.39-.1c-1.27 0-2.36.72-2.93 1.44-.37-.99-1.2-1.45-2.5-1.45-1.24 0-2.26.73-2.81 1.45-.12-.48-.15-1.24-.76-1.24-.48 0-2.13.15-2.13.61 0 .38.23.78.23 2.68V46c0 .4.34.6 1.14.6h.53c.8 0 1.14-.2 1.14-.6v-6.1c.23-.43.72-1.1 1.5-1.1.84 0 1.12.44 1.12 1.18V46c0 .4.34.6 1.14.6h.53c.8 0 1.14-.2 1.14-.6v-6.12c.23-.4.68-1.08 1.5-1.08.84 0 1.12.44 1.12 1.18V46c0 .4.34.6 1.14.6h.53c.8 0 1.14-.2 1.14-.6v-6.44c0-2.1-.87-3.08-2.77-3.08Zm9.44 0c-2.72 0-4.62 1.44-4.62 5.18 0 3.06 1.52 5.05 4.96 5.05 1.06 0 3.42-.42 3.42-1.37 0-.38-.57-1.44-1-1.44-.26 0-1.1.59-2.29.59-1.23 0-2.05-.48-2.18-2h4.84c.25 0 .97-.8.97-1.12 0-2.64-1.12-4.9-4.1-4.9Zm0 2.22c.95 0 1.36.81 1.36 1.91h-3.07c.23-1.46.9-1.91 1.7-1.91Zm11.48-2.22a3.7 3.7 0 0 0-2.82 1.44c-.12-.48-.16-1.24-.76-1.24-.48 0-2.13.15-2.13.61 0 .38.23.78.23 2.68V46c0 .4.34.6 1.14.6h.53c.8 0 1.14-.2 1.14-.6v-6.1c.23-.43.74-1.1 1.52-1.1.83 0 1.14.44 1.14 1.18V46c0 .4.34.6 1.14.6h.53c.8 0 1.14-.2 1.14-.6v-6.44c0-2.1-.9-3.08-2.8-3.08Zm7.24-2.27h-.59c-.63 0-.97.21-1.02.61l-.25 1.8h-.3c-.4 0-.58.3-.58.96v.32c0 .66.18.95.57.95h.3v4.78c0 2.11 1 3.08 2.78 3.08.59 0 1.82-.06 1.82-.93 0-.15-.2-1.37-.59-1.37-.1 0-.34.08-.5.08-.5 0-.7-.25-.7-.82v-4.82h.94c.4 0 .57-.29.57-.95v-.32c0-.67-.17-.95-.57-.95h-.93v-1.8c0-.4-.29-.62-.95-.62Zm7.44 2.27c-2.1 0-3.45 1.13-3.45 3.1 0 1.9 1.23 2.5 2.16 2.86.86.34 1.63.53 1.63 1.25 0 .51-.38.8-1.1.8-1 0-1.63-.53-1.91-.53-.38 0-1.01.96-1.01 1.46 0 .81 1.73 1.29 3.15 1.29 2.37 0 3.72-1.31 3.72-3.25 0-1.5-.8-2.2-1.65-2.62-1-.47-2.15-.66-2.15-1.5 0-.47.38-.66 1.01-.66.9 0 1.43.4 1.63.4.36 0 .82-1.09.82-1.5 0-.8-1.75-1.1-2.85-1.1Z" fill="#404040" fill-rule="nonzero"/>
  <defs>
    <linearGradient id="a" x1="0" y1="0" x2="1" y2="0" gradientUnits="userSpaceOnUse" gradientTransform="translate(0 23358.5) scale(240.079)">
      <stop offset="0" stop-color="#f65c51"/>
      <stop offset=".1" stop-color="#d9615e"/>
      <stop offset=".5" stop-color="#906f7f"/>
      <stop offset=".9" stop-color="#1c84b2"/>
      <stop offset="1" stop-color="#0988bb"/>
    </linearGradient>
  </defs>
</svg>
