<svg viewBox="0 0 150 60" xmlns="http://www.w3.org/2000/svg" xml:space="preserve" fill-rule="evenodd" clip-rule="evenodd" stroke-linejoin="round" stroke-miterlimit="2">
  <path d="M102.8 24.44c0-3.85-.47-4.63-.47-5.4 0-.92 3.34-1.23 4.28-1.23 1.22 0 1.3 1.53 1.53 2.49.82-1.45 1.94-2.92 4.16-2.92 1.9 0 2.18 1.3 2.18 2.07 0 .74-.4 3.2-1.2 3.2-.53 0-1.02-.28-1.78-.28-1.6 0-2.62 1.13-3.07 1.9v12.3c0 .8-.67 1.22-2.3 1.22h-1.04c-1.62 0-2.29-.42-2.29-1.22V24.44Zm23.14 13.35h-1.89c-1.24 0-1.96-.27-2.09-.82l-4.85-17.8c-.09-.23-.09-.45-.09-.58 0-.6 1.56-.94 3.18-.94 1.03-.07 2.07.18 2.23.74l3.05 11.79 2.89-11.8c.13-.55.89-.82 2.11-.82h.94c1.04 0 2 .27 2.09.83l2.83 11.79 3.11-11.8c.16-.55.9-.82 2.1-.82h.17c1.63 0 2.36.38 2.36 1.03 0 .15-.02.33-.09.55l-4.52 17.83c-.15.55-1.02.82-2.09.82h-1.89c-1.22 0-1.96-.27-2.1-.82l-2.75-10.77-2.6 10.77c-.12.55-1.05.82-2.1.82Z" fill="#404040"/>
  <path d="M239.8 117.4c-1.4-11-15-19.5-23.5-20.7 3 2.3 6.5 4.3 9.2 7 4.7 4.5 6.8 10 5.2 16.5a32.5 32.5 0 0 1-10.1 15.5 115.6 115.6 0 0 1-37 22.3 259.88 259.88 0 0 1-75.8 17.8 187.11 187.11 0 0 1-51.2-1.8c-9.6-1.8-19-4.4-27-10.1-8.3-5.8-11-13-8.2-21.3l-3.5-12.9a54.1 54.1 0 0 0-15 16.7c-5.3 10-3.3 19.5 5.5 26.8 8 6.6 17.6 9.7 27.5 11.9a207 207 0 0 0 63.8 2.7 306 306 0 0 0 67.7-13.6 184.1 184.1 0 0 0 51.5-24.4c6.7-4.7 12.7-10 17-17 3-4.6 4.6-9.7 4-15.4h-.1Z" fill="url(#a)" fill-rule="nonzero" transform="translate(96.5 6.04) scale(.22253)"/>
  <path d="M7.34 21.92c-4.88 0-7.34 2.6-7.34 7.83 0 5.42 2.3 7.9 7.23 7.9 1.76 0 4.9-.52 4.9-1.84 0-.37-.6-1.91-1.3-1.91-.33 0-1.51.88-3.6.88-2.53 0-3.76-1.72-3.76-5.01 0-3.3 1.21-4.95 3.8-4.95 2.09 0 2.97.7 3.23.7.55 0 1.43-1.44 1.43-2.06 0-.92-2.66-1.54-4.6-1.54ZM16 20.91h-.62c-.92 0-1.32.25-1.32.7v15.21c0 .46.4.7 1.32.7H16c.92 0 1.31-.24 1.31-.7v-7.05c.27-.5.86-1.28 1.76-1.28.97 0 1.4.5 1.4 1.37v6.96c0 .46.4.7 1.33.7h.61c.92 0 1.32-.24 1.32-.7v-7.45c0-2.44-1.12-3.56-3.32-3.56-1.32 0-2.42.68-3.1 1.5v-5.7c0-.45-.4-.7-1.31-.7Zm14.78 4.9c-2.44 0-4.2.77-4.2 1.52 0 .46.69 1.76 1.15 1.76.26 0 1.2-.7 2.81-.7 1.2 0 1.71.41 1.71 1.25v.72c-5.58 0-6.3 2.29-6.3 4.09 0 1.8.88 3.2 3.25 3.2A3.82 3.82 0 0 0 32.43 36c.13.59.18 1.51.88 1.51.55 0 2.46-.17 2.46-.7 0-.46-.26-.92-.26-3.19v-4.13c0-2.13-1.26-3.67-4.73-3.67Zm1.47 6.68v1.21a2.27 2.27 0 0 1-1.97 1.39c-.73 0-1.1-.42-1.1-.97 0-1.06.99-1.63 3.07-1.63Zm8.59-9.29h-.68c-.72 0-1.12.24-1.18.7l-.29 2.1h-.35c-.46 0-.66.33-.66 1.1v.37c0 .77.2 1.1.66 1.1h.35v5.54c0 2.44 1.14 3.56 3.2 3.56.69 0 2.12-.07 2.12-1.08 0-.18-.24-1.58-.68-1.58-.13 0-.4.09-.6.09-.57 0-.79-.29-.79-.95v-5.58h1.08c.46 0 .66-.33.66-1.1v-.37c0-.77-.2-1.1-.66-1.1h-1.08v-2.1c0-.46-.33-.7-1.1-.7Zm23.49 2.75c-.79 0-1.2.15-1.3.46l-1.51 5.8-.26.96c-.07-.3-.16-.59-.22-.9l-1.41-5.86c-.07-.31-.6-.46-1.2-.46h-.54c-.7 0-1.14.15-1.2.46l-1.41 5.73-.26 1.03-.25-.96-1.49-5.8c-.09-.33-.55-.46-1.74-.46-.94 0-1.36.21-1.36.57 0 .08 0 .2.05.33l2.76 10.21c.1.31.49.46 1.21.46h1.08c.62 0 1.14-.15 1.2-.46l1.26-5.2.24-.97c.09.3.16.64.24.94l1.34 5.23c.1.31.51.46 1.21.46h1.08c.61 0 1.12-.15 1.2-.46l2.6-10.21.04-.33c0-.36-.41-.57-1.36-.57Zm5.1-5.04h-.62c-.92 0-1.31.25-1.31.7v1.79c0 .46.4.7 1.31.7h.62c.92 0 1.32-.24 1.32-.7v-1.78c0-.46-.4-.7-1.32-.7Zm0 5.04h-.62c-.92 0-1.31.24-1.31.7v10.17c0 .46.4.7 1.31.7h.62c.92 0 1.32-.24 1.32-.7V26.65c0-.46-.4-.7-1.32-.7Zm6.44-2.75h-.68c-.73 0-1.12.24-1.2.7l-.27 2.1h-.35c-.46 0-.66.33-.66 1.1v.37c0 .77.2 1.1.66 1.1h.35v5.54c0 2.44 1.15 3.56 3.21 3.56.68 0 2.11-.07 2.11-1.08 0-.18-.24-1.58-.68-1.58-.13 0-.4.09-.6.09-.56 0-.78-.29-.78-.95v-5.58h1.07c.46 0 .66-.33.66-1.1v-.37c0-.77-.2-1.1-.66-1.1h-1.07v-2.1c0-.46-.33-.7-1.1-.7Zm7.05-2.29h-.61c-.93 0-1.32.25-1.32.7v15.21c0 .46.4.7 1.32.7h.61c.92 0 1.32-.24 1.32-.7v-7.05c.26-.5.86-1.28 1.76-1.28.96 0 1.4.5 1.4 1.37v6.96c0 .46.4.7 1.32.7h.62c.92 0 1.31-.24 1.31-.7v-7.45c0-2.44-1.12-3.56-3.31-3.56-1.32 0-2.42.68-3.1 1.5v-5.7c0-.45-.4-.7-1.32-.7Z" fill="#404040" fill-rule="nonzero"/>
  <defs>
    <linearGradient id="a" x1="0" y1="0" x2="1" y2="0" gradientUnits="userSpaceOnUse" gradientTransform="translate(0 23358.5) scale(240.079)">
      <stop offset="0" stop-color="#f65c51"/>
      <stop offset=".1" stop-color="#d9615e"/>
      <stop offset=".5" stop-color="#906f7f"/>
      <stop offset=".9" stop-color="#1c84b2"/>
      <stop offset="1" stop-color="#0988bb"/>
    </linearGradient>
  </defs>
</svg>
