<svg viewBox="0 0 150 60" xmlns="http://www.w3.org/2000/svg" xml:space="preserve" fill-rule="evenodd" clip-rule="evenodd" stroke-linejoin="round" stroke-miterlimit="2">
  <path d="M6.62 24.44c0-3.85-.47-4.63-.47-5.4 0-.92 3.34-1.23 4.28-1.23 1.22 0 1.3 1.53 1.53 2.49.82-1.45 1.94-2.92 4.16-2.92 1.9 0 2.18 1.3 2.18 2.07 0 .74-.4 3.2-1.2 3.2-.53 0-1.02-.28-1.78-.28-1.6 0-2.62 1.13-3.07 1.9v12.3c0 .8-.67 1.22-2.3 1.22H8.92c-1.62 0-2.29-.42-2.29-1.22V24.44Zm23.14 13.35h-1.89c-1.24 0-1.96-.27-2.09-.82l-4.85-17.8c-.09-.23-.09-.45-.09-.58 0-.6 1.56-.94 3.18-.94 1.03-.07 2.07.18 2.23.74l3.05 11.79 2.89-11.8c.13-.55.89-.82 2.11-.82h.94c1.04 0 2 .27 2.09.83l2.83 11.79 3.11-11.8c.16-.55.9-.82 2.1-.82h.17c1.63 0 2.36.38 2.36 1.03 0 .15-.02.33-.09.55L43.3 36.97c-.15.55-1.02.82-2.09.82h-1.89c-1.22 0-1.96-.27-2.1-.82L34.47 26.2l-2.6 10.77c-.12.55-1.05.82-2.1.82Z" fill="#404040"/>
  <path d="M239.8 117.4c-1.4-11-15-19.5-23.5-20.7 3 2.3 6.5 4.3 9.2 7 4.7 4.5 6.8 10 5.2 16.5a32.5 32.5 0 0 1-10.1 15.5 115.6 115.6 0 0 1-37 22.3 259.88 259.88 0 0 1-75.8 17.8 187.11 187.11 0 0 1-51.2-1.8c-9.6-1.8-19-4.4-27-10.1-8.3-5.8-11-13-8.2-21.3l-3.5-12.9a54.1 54.1 0 0 0-15 16.7c-5.3 10-3.3 19.5 5.5 26.8 8 6.6 17.6 9.7 27.5 11.9a207 207 0 0 0 63.8 2.7 306 306 0 0 0 67.7-13.6 184.1 184.1 0 0 0 51.5-24.4c6.7-4.7 12.7-10 17-17 3-4.6 4.6-9.7 4-15.4h-.1Z" fill="url(#a)" fill-rule="nonzero" transform="translate(.32 6.04) scale(.22253)"/>
  <path d="M69.17 18.32h-.69c-1.02 0-1.46.27-1.46.78v5.4a4.22 4.22 0 0 0-2.48-.75c-3.28 0-5.13 2.58-5.13 6.54 0 4.24 1.92 6.57 4.55 6.57 1.5 0 2.7-.78 3.26-1.82.15.63.2 1.65.97 1.65.61 0 2.73-.2 2.73-.78 0-.5-.3-1.02-.3-3.53V19.1c0-.51-.43-.78-1.45-.78Zm-3.85 8.27c.76 0 1.32.25 1.7.47v5.42c-.43.76-1.07 1.44-2 1.44-1.33 0-1.96-1.27-1.96-3.63 0-2.43.73-3.7 2.26-3.7Zm13.75-2.84c-3.87 0-5.91 2.3-5.91 6.54s2.04 6.57 5.9 6.57c3.88 0 5.9-2.33 5.9-6.57 0-4.23-2.02-6.54-5.9-6.54Zm0 2.84c1.56 0 2.24 1.27 2.24 3.7 0 2.44-.68 3.72-2.24 3.72s-2.26-1.28-2.26-3.72c0-2.43.7-3.7 2.26-3.7Zm14.18-2.84c-4.35 0-6.25 2.3-6.25 6.64 0 4.35 1.97 6.47 6.13 6.47.8 0 4.26-.34 4.26-1.7 0-.49-.73-1.85-1.27-1.85-.1 0-.24.07-.43.15a5.3 5.3 0 0 1-2.39.55c-1.85 0-2.6-1.21-2.6-3.72 0-2.48.8-3.7 2.75-3.7a4.4 4.4 0 0 1 2.12.54c.19.1.34.17.43.17.42 0 1.3-1.41 1.3-1.87 0-1.12-2.32-1.68-4.05-1.68Zm17.65 0c-4.36 0-6.26 2.3-6.26 6.64 0 4.35 1.97 6.47 6.13 6.47.8 0 4.26-.34 4.26-1.7 0-.49-.73-1.85-1.26-1.85-.1 0-.25.07-.44.15a5.3 5.3 0 0 1-2.39.55c-1.85 0-2.6-1.21-2.6-3.72 0-2.48.8-3.7 2.75-3.7a4.4 4.4 0 0 1 2.12.54c.2.1.34.17.43.17.42 0 1.3-1.41 1.3-1.87 0-1.12-2.32-1.68-4.05-1.68Zm8.27-5.43h-.68c-1.03 0-1.46.27-1.46.78v16.84c0 .5.43.78 1.46.78h.68c1.02 0 1.46-.27 1.46-.78v-7.81c.29-.56.95-1.41 1.94-1.41 1.07 0 1.56.55 1.56 1.5v7.72c0 .5.44.78 1.46.78h.68c1.02 0 1.46-.27 1.46-.78v-8.25c0-2.7-1.24-3.94-3.67-3.94-1.46 0-2.68.75-3.43 1.65v-6.3c0-.51-.44-.78-1.46-.78Zm16.37 5.43c-2.7 0-4.65.85-4.65 1.68 0 .5.76 1.94 1.27 1.94.3 0 1.34-.78 3.11-.78 1.34 0 1.9.47 1.9 1.39v.8c-6.18 0-6.98 2.53-6.98 4.53 0 2 .97 3.55 3.6 3.55 2.24 0 3.4-1.53 3.58-1.85.14.66.2 1.68.97 1.68.6 0 2.73-.2 2.73-.78 0-.5-.3-1.02-.3-3.53v-4.57c0-2.36-1.38-4.06-5.23-4.06Zm1.63 7.4v1.33a2.52 2.52 0 0 1-2.19 1.53c-.8 0-1.21-.46-1.21-1.07 0-1.16 1.1-1.8 3.4-1.8Zm9.52-10.3h-.76c-.8 0-1.24.27-1.31.78l-.32 2.31h-.39c-.5 0-.73.37-.73 1.22v.41c0 .85.22 1.22.73 1.22h.4v6.13c0 2.7 1.26 3.94 3.54 3.94.76 0 2.34-.07 2.34-1.2 0-.19-.27-1.74-.75-1.74-.15 0-.44.1-.66.1-.63 0-.88-.32-.88-1.05v-6.18h1.2c.5 0 .73-.37.73-1.22v-.41c0-.85-.22-1.22-.73-1.22h-1.2v-2.31c0-.51-.36-.78-1.21-.78Z" fill="#404040" fill-rule="nonzero"/>
  <defs>
    <linearGradient id="a" x1="0" y1="0" x2="1" y2="0" gradientUnits="userSpaceOnUse" gradientTransform="translate(0 23358.5) scale(240.079)">
      <stop offset="0" stop-color="#f65c51"/>
      <stop offset=".1" stop-color="#d9615e"/>
      <stop offset=".5" stop-color="#906f7f"/>
      <stop offset=".9" stop-color="#1c84b2"/>
      <stop offset="1" stop-color="#0988bb"/>
    </linearGradient>
  </defs>
</svg>
