<svg viewBox="0 0 150 60" xmlns="http://www.w3.org/2000/svg" xml:space="preserve" fill-rule="evenodd" clip-rule="evenodd" stroke-linejoin="round" stroke-miterlimit="2">
  <path d="M6.62 24.44c0-3.85-.47-4.63-.47-5.4 0-.92 3.34-1.23 4.28-1.23 1.22 0 1.3 1.53 1.53 2.49.82-1.45 1.94-2.92 4.16-2.92 1.9 0 2.18 1.3 2.18 2.07 0 .74-.4 3.2-1.2 3.2-.53 0-1.02-.28-1.78-.28-1.6 0-2.62 1.13-3.07 1.9v12.3c0 .8-.67 1.22-2.3 1.22H8.92c-1.62 0-2.29-.42-2.29-1.22V24.44Zm23.14 13.35h-1.89c-1.24 0-1.96-.27-2.09-.82l-4.85-17.8c-.09-.23-.09-.45-.09-.58 0-.6 1.56-.94 3.18-.94 1.03-.07 2.07.18 2.23.74l3.05 11.79 2.89-11.8c.13-.55.89-.82 2.11-.82h.94c1.04 0 2 .27 2.09.83l2.83 11.79 3.11-11.8c.16-.55.9-.82 2.1-.82h.17c1.63 0 2.36.38 2.36 1.03 0 .15-.02.33-.09.55L43.3 36.97c-.15.55-1.02.82-2.09.82h-1.89c-1.22 0-1.96-.27-2.1-.82L34.47 26.2l-2.6 10.77c-.12.55-1.05.82-2.1.82Z" fill="#404040"/>
  <path d="M239.8 117.4c-1.4-11-15-19.5-23.5-20.7 3 2.3 6.5 4.3 9.2 7 4.7 4.5 6.8 10 5.2 16.5a32.5 32.5 0 0 1-10.1 15.5 115.6 115.6 0 0 1-37 22.3 259.88 259.88 0 0 1-75.8 17.8 187.11 187.11 0 0 1-51.2-1.8c-9.6-1.8-19-4.4-27-10.1-8.3-5.8-11-13-8.2-21.3l-3.5-12.9a54.1 54.1 0 0 0-15 16.7c-5.3 10-3.3 19.5 5.5 26.8 8 6.6 17.6 9.7 27.5 11.9a207 207 0 0 0 63.8 2.7 306 306 0 0 0 67.7-13.6 184.1 184.1 0 0 0 51.5-24.4c6.7-4.7 12.7-10 17-17 3-4.6 4.6-9.7 4-15.4h-.1Z" fill="url(#a)" fill-rule="nonzero" transform="translate(.32 6.04) scale(.22253)"/>
  <path d="M67.63 11.93h-.57c-.86 0-1.23.23-1.23.66v4.55a3.56 3.56 0 0 0-2.1-.63c-2.76 0-4.32 2.17-4.32 5.51 0 3.57 1.62 5.54 3.83 5.54 1.27 0 2.28-.66 2.75-1.54.12.54.17 1.4.82 1.4.51 0 2.3-.17 2.3-.66 0-.43-.25-.86-.25-2.97v-11.2c0-.43-.37-.66-1.23-.66Zm-3.24 6.98c.64 0 1.1.2 1.44.39v4.57c-.37.63-.9 1.2-1.68 1.2-1.13 0-1.67-1.06-1.67-3.05 0-2.05.62-3.11 1.91-3.11Zm11.59-2.41c-3.26 0-4.99 1.96-4.99 5.52 0 3.57 1.73 5.54 4.99 5.54 3.26 0 4.96-1.97 4.96-5.54 0-3.56-1.7-5.51-4.96-5.51Zm0 2.4c1.31 0 1.88 1.07 1.88 3.12s-.57 3.14-1.88 3.14-1.91-1.09-1.91-3.14.6-3.11 1.9-3.11Zm11.95-2.4c-3.67 0-5.27 1.96-5.27 5.6 0 3.68 1.66 5.46 5.17 5.46.68 0 3.59-.29 3.59-1.44 0-.4-.62-1.55-1.07-1.55-.08 0-.2.06-.37.12a4.5 4.5 0 0 1-2 .47c-1.57 0-2.2-1.02-2.2-3.14 0-2.09.68-3.11 2.32-3.11.86 0 1.41.26 1.78.45.16.08.29.14.37.14.35 0 1.09-1.19 1.09-1.58 0-.94-1.95-1.41-3.4-1.41Zm12.74.13h-.58c-.86 0-1.23.23-1.23.66v6.58c-.24.47-.8 1.19-1.64 1.19-.9 0-1.23-.47-1.23-1.27v-6.5c0-.43-.37-.66-1.23-.66h-.57c-.86 0-1.23.23-1.23.66v6.95c0 2.27.96 3.32 3.01 3.32A4 4 0 0 0 99.03 26c.12.56.16 1.42.82 1.42.5 0 2.3-.17 2.3-.66 0-.43-.25-.86-.25-2.97v-6.5c0-.43-.37-.66-1.23-.66Zm15.54-.13a4.2 4.2 0 0 0-3.16 1.57c-.4-1.07-1.29-1.56-2.7-1.56-1.34 0-2.44.78-3.04 1.56-.12-.52-.16-1.34-.82-1.34-.51 0-2.3.17-2.3.66 0 .4.25.84.25 2.89v6.5c0 .43.37.66 1.23.66h.57c.87 0 1.23-.23 1.23-.66V20.2c.25-.47.78-1.2 1.62-1.2.9 0 1.21.48 1.21 1.28v6.5c0 .43.37.66 1.23.66h.58c.86 0 1.23-.23 1.23-.66v-6.6c.25-.43.74-1.17 1.62-1.17.9 0 1.2.47 1.2 1.27v6.5c0 .43.38.66 1.24.66h.57c.86 0 1.23-.23 1.23-.66v-6.95c0-2.28-.94-3.32-2.99-3.32Zm10.19 0c-2.93 0-4.98 1.57-4.98 5.6 0 3.3 1.64 5.46 5.35 5.46 1.15 0 3.7-.45 3.7-1.48 0-.4-.62-1.56-1.08-1.56-.28 0-1.18.64-2.48.64-1.33 0-2.21-.51-2.35-2.15h5.22c.27 0 1.05-.86 1.05-1.21 0-2.85-1.21-5.3-4.43-5.3Zm0 2.4c1.03 0 1.48.89 1.48 2.08h-3.32c.24-1.58.98-2.07 1.84-2.07Zm12.4-2.4a4 4 0 0 0-3.05 1.57c-.12-.52-.16-1.34-.82-1.34-.51 0-2.3.17-2.3.66 0 .4.25.84.25 2.89v6.5c0 .43.37.66 1.23.66h.58c.86 0 1.23-.23 1.23-.66V20.2c.24-.47.8-1.2 1.64-1.2.9 0 1.23.48 1.23 1.28v6.5c0 .43.37.66 1.23.66h.57c.86 0 1.23-.23 1.23-.66v-6.95c0-2.28-.96-3.32-3.01-3.32Zm7.82-2.43h-.64c-.67 0-1.04.22-1.1.65l-.27 1.95h-.33c-.43 0-.61.3-.61 1.03v.35c0 .71.18 1.02.61 1.02h.33v5.17c0 2.27 1.07 3.32 3 3.32.63 0 1.96-.06 1.96-1 0-.17-.22-1.48-.63-1.48-.13 0-.37.08-.56.08-.53 0-.74-.27-.74-.88v-5.21h1.01c.43 0 .61-.3.61-1.02v-.35c0-.72-.18-1.03-.61-1.03h-1v-1.95c0-.43-.31-.65-1.03-.65ZM93.03 37.01c-3.67 0-5.27 1.95-5.27 5.6 0 3.67 1.66 5.46 5.17 5.46.67 0 3.58-.3 3.58-1.44 0-.41-.61-1.56-1.06-1.56-.08 0-.2.06-.37.12-.4.19-1.05.48-2.01.48-1.56 0-2.2-1.03-2.2-3.14 0-2.1.68-3.12 2.32-3.12.86 0 1.42.27 1.79.45.16.09.28.15.37.15.34 0 1.08-1.2 1.08-1.58 0-.95-1.95-1.42-3.4-1.42Zm6.97-4.57h-.57c-.87 0-1.23.23-1.23.66v14.19c0 .43.36.65 1.23.65h.57c.86 0 1.23-.22 1.23-.65V40.7c.25-.47.8-1.19 1.64-1.19.9 0 1.31.48 1.31 1.28v6.5c0 .43.37.65 1.23.65h.58c.86 0 1.23-.22 1.23-.65v-6.96c0-2.27-1.05-3.32-3.1-3.32-1.23 0-2.25.64-2.89 1.4V33.1c0-.43-.37-.66-1.23-.66Zm13.8 4.57c-2.28 0-3.92.72-3.92 1.42 0 .43.64 1.64 1.07 1.64.25 0 1.13-.66 2.62-.66 1.13 0 1.6.4 1.6 1.17v.68c-5.2 0-5.88 2.13-5.88 3.81 0 1.68.82 3 3.03 3 1.9 0 2.87-1.3 3.02-1.56.12.55.16 1.41.82 1.41.51 0 2.3-.16 2.3-.65 0-.43-.25-.87-.25-2.98v-3.85c0-2-1.17-3.43-4.4-3.43Zm1.37 6.24v1.12a2.12 2.12 0 0 1-1.84 1.3c-.68 0-1.03-.4-1.03-.9 0-.99.93-1.52 2.87-1.52Zm8.03-8.68h-.64c-.68 0-1.05.23-1.11.66l-.27 1.95h-.33c-.43 0-.61.3-.61 1.02v.35c0 .72.18 1.03.61 1.03h.33v5.16c0 2.28 1.07 3.33 3 3.33.63 0 1.96-.07 1.96-1 0-.17-.22-1.49-.63-1.49-.12 0-.37.09-.55.09-.54 0-.74-.27-.74-.89v-5.2h1c.43 0 .62-.31.62-1.03v-.35c0-.72-.19-1.02-.62-1.02h-1v-1.95c0-.43-.31-.66-1.03-.66Z" fill="#404040" fill-rule="nonzero"/>
  <defs>
    <linearGradient id="a" x1="0" y1="0" x2="1" y2="0" gradientUnits="userSpaceOnUse" gradientTransform="translate(0 23358.5) scale(240.079)">
      <stop offset="0" stop-color="#f65c51"/>
      <stop offset=".1" stop-color="#d9615e"/>
      <stop offset=".5" stop-color="#906f7f"/>
      <stop offset=".9" stop-color="#1c84b2"/>
      <stop offset="1" stop-color="#0988bb"/>
    </linearGradient>
  </defs>
</svg>
